<svg width="225" height="28" viewBox="0 0 225 28" fill="none" xmlns="http://www.w3.org/2000/svg">
<path d="M16.512 16.44L19.488 26.424L17.856 27.512C17.2587 27.4053 16.6187 27.1707 15.936 26.808C15.2533 26.4453 14.6347 25.9867 14.08 25.432L13.6 20.728L6.24 20.696L4.32 27H2.432C1.984 26.5733 1.57867 26.072 1.216 25.496C0.853333 24.8987 0.565333 24.216 0.352 23.448L4.16 16.216L7.104 8.024L3.744 8.248C3.44533 7.736 3.27467 7.13867 3.232 6.456C3.21067 5.77333 3.27467 5.16533 3.424 4.632H9.984C10.3893 4.84533 10.8373 5.15467 11.328 5.56C11.84 5.944 12.3307 6.38133 12.8 6.872C13.2907 7.34133 13.7067 7.832 14.048 8.344L16.512 16.44ZM7.296 17.336L13.216 17.272L13.184 16.92L10.4 8.216L7.296 17.336ZM24.2093 14.136C24.5293 14.7973 25.0306 15.384 25.7133 15.896C26.3959 16.3867 27.1639 16.9093 28.0173 17.464C28.8706 17.9973 29.7133 18.6373 30.5453 19.384C31.3986 20.1093 32.1559 21.0373 32.8173 22.168C32.6466 23.1493 32.3373 24.0773 31.8893 24.952C31.4413 25.8267 30.8973 26.5093 30.2573 27C29.2119 27.2773 28.0599 27.4267 26.8013 27.448C25.5426 27.4907 24.1986 27.3733 22.7693 27.096C22.4919 26.8827 22.1719 26.616 21.8093 26.296C21.4466 25.9547 21.1266 25.6027 20.8493 25.24L21.0093 21.048C21.3719 20.92 21.7986 20.8453 22.2893 20.824C22.7799 20.7813 23.2279 20.8133 23.6333 20.92L24.1453 24.408C25.0839 24.5573 26.0439 24.568 27.0253 24.44C28.0279 24.2907 28.8599 24.056 29.5213 23.736C28.9879 23.032 28.3159 22.4027 27.5052 21.848C26.7159 21.2933 25.8839 20.7493 25.0093 20.216C24.1559 19.6613 23.3559 19.032 22.6093 18.328C21.8839 17.624 21.3186 16.76 20.9133 15.736C20.9773 15.2667 21.1159 14.7333 21.3293 14.136C21.5426 13.5173 21.7986 12.9307 22.0973 12.376C22.4173 11.8213 22.7586 11.384 23.1213 11.064C24.5079 10.68 25.8306 10.488 27.0893 10.488C28.3479 10.4667 29.6919 10.6053 31.1213 10.904C31.3986 11.0747 31.6866 11.3733 31.9853 11.8C32.3053 12.2267 32.5506 12.568 32.7213 12.824L32.2733 16.792C31.9106 16.92 31.4946 16.984 31.0253 16.984C30.5559 16.984 30.1079 16.9413 29.6813 16.856L29.3933 13.592C28.5399 13.528 27.6546 13.5387 26.7373 13.624C25.8413 13.7093 24.9986 13.88 24.2093 14.136ZM46.5508 22.52C46.7001 22.712 46.8601 23.0533 47.0308 23.544C47.2014 24.0347 47.2761 24.4933 47.2548 24.92C46.6788 25.2613 46.0174 25.6027 45.2708 25.944C44.5241 26.2853 43.7988 26.5947 43.0948 26.872C42.4121 27.1493 41.8361 27.3627 41.3668 27.512C40.8121 27.3413 40.2041 27.0747 39.5428 26.712C38.8814 26.3493 38.2841 25.9227 37.7508 25.432C37.2388 24.92 36.9081 24.408 36.7588 23.896L37.4628 14.744L34.9988 15.224L34.1988 13.048L37.4948 10.2L37.2708 7.64C37.6334 7.256 38.0708 6.88267 38.5828 6.52C39.0948 6.136 39.5854 5.848 40.0548 5.656L41.2388 6.488L41.1108 10.936C41.9854 10.8507 42.8814 10.7973 43.7988 10.776C44.7374 10.7547 45.6654 10.7867 46.5828 10.872L46.9028 13.432L45.9108 14.456C44.2041 14.328 42.5721 14.296 41.0148 14.36C40.8654 15.32 40.7588 16.3653 40.6948 17.496C40.6308 18.6267 40.6308 19.7467 40.6948 20.856C40.7588 21.944 40.9081 22.9467 41.1428 23.864L46.5508 22.52ZM59.4338 10.488C59.9244 10.744 60.3938 11.224 60.8418 11.928C61.3111 12.6107 61.6418 13.3253 61.8338 14.072L61.5458 18.072C61.1831 18.328 60.7244 18.52 60.1698 18.648C59.6151 18.7547 59.1031 18.8187 58.6338 18.84L57.8658 18.104C57.9724 17.3147 58.0364 16.6213 58.0578 16.024C58.1004 15.4053 58.0791 14.8613 57.9938 14.392C57.3324 14.8827 56.7138 15.5973 56.1378 16.536C55.5831 17.4533 55.0711 18.4773 54.6018 19.608L54.6978 27C54.2284 27.128 53.6844 27.192 53.0658 27.192C52.4471 27.192 51.8924 27.128 51.4018 27C50.7404 26.296 50.1964 25.496 49.7698 24.6C49.9191 23.896 50.1324 23.1493 50.4098 22.36C50.6871 21.5493 51.0071 20.7493 51.3698 19.96V18.808L50.9858 14.392L48.2018 15.096C48.0524 14.84 47.8711 14.488 47.6578 14.04C47.4444 13.5707 47.3164 13.0907 47.2737 12.6L51.5938 10.488C51.8071 10.5093 52.1058 10.6267 52.4898 10.84C52.8951 11.0533 53.2898 11.288 53.6738 11.544C54.0791 11.7787 54.3778 11.9813 54.5698 12.152L54.4418 14.68C55.3164 13.464 56.2018 12.4613 57.0978 11.672C57.9938 10.8827 58.7724 10.488 59.4338 10.488ZM71.3798 10.488C72.2331 10.5733 73.0224 10.872 73.7478 11.384C74.4731 11.896 75.1131 12.5147 75.6678 13.24C76.2224 13.944 76.6491 14.68 76.9478 15.448L76.6918 23.128C76.5211 23.4693 76.2544 23.8853 75.8918 24.376C75.5504 24.8453 75.1664 25.304 74.7398 25.752C74.3344 26.2 73.9291 26.5733 73.5238 26.872C72.8838 27.064 72.2758 27.2133 71.6998 27.32C71.1238 27.448 70.4731 27.512 69.7478 27.512C69.0438 27.512 68.1584 27.4693 67.0918 27.384C66.6651 27.2133 66.1638 26.9147 65.5878 26.488C65.0118 26.04 64.4891 25.5493 64.0198 25.016C63.5504 24.4613 63.2518 23.9387 63.1238 23.448L63.5398 14.744C63.7104 14.3173 63.9344 13.848 64.2118 13.336C64.5104 12.8027 64.8304 12.2907 65.1718 11.8C65.5344 11.3093 65.8864 10.936 66.2278 10.68C66.7824 10.8293 67.2624 11.064 67.6678 11.384C68.0731 11.6827 68.3824 11.9813 68.5958 12.28C68.0198 12.9627 67.5931 13.8373 67.3158 14.904C67.0384 15.9707 66.8678 17.08 66.8038 18.232C66.7398 19.384 66.7611 20.4613 66.8678 21.464C66.9958 22.4453 67.1664 23.2133 67.3798 23.768C68.2758 23.9387 69.1718 24.0027 70.0677 23.96C70.9851 23.896 71.8384 23.7573 72.6278 23.544C73.0758 22.2427 73.3211 20.92 73.3638 19.576C73.4064 18.2107 73.3104 17.0267 73.0758 16.024C72.3504 15.4693 71.6891 15.032 71.0918 14.712C70.5158 14.3707 69.8438 14.0507 69.0758 13.752C69.4598 13.048 69.8118 12.472 70.1318 12.024C70.4731 11.5547 70.8891 11.0427 71.3798 10.488ZM92.598 8.408L85.398 7.704L85.11 16.664L85.206 27.064L83.414 27.512C82.8593 27.2347 82.294 26.8613 81.718 26.392C81.142 25.9013 80.6727 25.3147 80.31 24.632L81.814 16.248L81.558 7.864L76.502 8.632C75.9687 8.29067 75.51 7.93867 75.126 7.576C74.742 7.21333 74.3367 6.75467 73.91 6.2L74.518 4.344L83.734 4.6L90.614 4.088C91.2967 4.55733 91.8407 4.99467 92.246 5.4C92.6513 5.784 92.9927 6.17867 93.27 6.584L92.598 8.408ZM101.121 10.488C101.612 10.744 102.081 11.224 102.529 11.928C102.999 12.6107 103.329 13.3253 103.521 14.072L103.233 18.072C102.871 18.328 102.412 18.52 101.857 18.648C101.303 18.7547 100.791 18.8187 100.321 18.84L99.5533 18.104C99.6599 17.3147 99.7239 16.6213 99.7453 16.024C99.7879 15.4053 99.7666 14.8613 99.6813 14.392C99.0199 14.8827 98.4013 15.5973 97.8253 16.536C97.2706 17.4533 96.7586 18.4773 96.2893 19.608L96.3853 27C95.9159 27.128 95.3719 27.192 94.7533 27.192C94.1346 27.192 93.5799 27.128 93.0893 27C92.4279 26.296 91.8839 25.496 91.4573 24.6C91.6066 23.896 91.8199 23.1493 92.0973 22.36C92.3746 21.5493 92.6946 20.7493 93.0573 19.96V18.808L92.6733 14.392L89.8893 15.096C89.7399 14.84 89.5586 14.488 89.3453 14.04C89.1319 13.5707 89.0039 13.0907 88.9612 12.6L93.2812 10.488C93.4946 10.5093 93.7933 10.6267 94.1773 10.84C94.5826 11.0533 94.9773 11.288 95.3613 11.544C95.7666 11.7787 96.0653 11.9813 96.2573 12.152L96.1293 14.68C97.0039 13.464 97.8893 12.4613 98.7853 11.672C99.6813 10.8827 100.46 10.488 101.121 10.488ZM120.363 22.872C120.555 23.128 120.747 23.4907 120.939 23.96C121.131 24.4293 121.249 24.9093 121.291 25.4L116.971 27.512C116.459 27.3627 115.905 27.1173 115.307 26.776C114.731 26.4347 114.294 26.1253 113.995 25.848L114.123 23.512C113.057 24.6853 111.979 25.624 110.891 26.328C109.803 27.032 108.854 27.4267 108.043 27.512C107.723 27.3413 107.329 27.0427 106.859 26.616C106.411 26.168 105.985 25.6773 105.579 25.144C105.195 24.5893 104.939 24.0667 104.811 23.576L105.483 14.744C105.803 14.0613 106.262 13.3787 106.859 12.696C107.457 11.992 108.054 11.4267 108.651 11C110.187 10.7227 111.681 10.5627 113.131 10.52C114.582 10.456 116.182 10.7013 117.931 11.256C118.166 11.512 118.379 11.8213 118.571 12.184C118.763 12.5467 118.923 12.8987 119.051 13.24C119.201 13.56 119.286 13.8053 119.307 13.976C119.094 14.9147 118.806 15.832 118.443 16.728C118.102 17.624 117.686 18.4773 117.195 19.288L117.579 23.576L120.363 22.872ZM109.227 23.608C109.995 23.3307 110.838 22.7333 111.755 21.816C112.694 20.8987 113.547 19.8107 114.315 18.552L114.443 13.72C113.569 13.6987 112.726 13.7413 111.915 13.848C111.105 13.9547 110.337 14.1147 109.611 14.328C109.227 15.3947 108.95 16.4827 108.779 17.592C108.63 18.68 108.555 19.6933 108.555 20.632C108.577 21.5493 108.651 22.2853 108.779 22.84C108.907 23.3947 109.057 23.6507 109.227 23.608ZM139.241 22.872C139.433 23.128 139.625 23.4907 139.817 23.96C140.009 24.4293 140.126 24.9093 140.169 25.4L135.849 27.512C135.294 27.2347 134.707 26.872 134.089 26.424C133.47 25.976 132.979 25.4853 132.617 24.952C133.001 23.608 133.257 22.2533 133.385 20.888C133.513 19.5227 133.545 18.2533 133.481 17.08C133.438 15.8853 133.321 14.9147 133.129 14.168C132.595 14.4027 132.019 14.8187 131.401 15.416C130.803 15.992 130.206 16.6853 129.609 17.496C129.011 18.3067 128.457 19.1813 127.945 20.12L127.753 27C127.283 27.128 126.739 27.192 126.121 27.192C125.502 27.192 124.947 27.128 124.457 27C123.795 26.296 123.251 25.496 122.825 24.6C123.017 23.64 123.273 22.712 123.593 21.816C123.934 20.92 124.307 20.0773 124.713 19.288L124.745 18.808L124.361 14.392L121.577 15.096C121.427 14.84 121.246 14.488 121.033 14.04C120.819 13.5707 120.691 13.0907 120.649 12.6L124.969 10.488C125.182 10.5093 125.481 10.6267 125.865 10.84C126.27 11.0533 126.665 11.288 127.049 11.544C127.454 11.7787 127.753 11.9813 127.945 12.152L127.817 14.84C129.011 13.4747 130.206 12.408 131.401 11.64C132.617 10.872 133.619 10.488 134.409 10.488C134.729 10.6587 135.081 10.9573 135.465 11.384C135.849 11.8107 136.201 12.2907 136.521 12.824C136.841 13.336 137.065 13.848 137.193 14.36L136.649 23.544L139.241 22.872ZM144.772 14.136C145.092 14.7973 145.593 15.384 146.276 15.896C146.958 16.3867 147.726 16.9093 148.58 17.464C149.433 17.9973 150.276 18.6373 151.108 19.384C151.961 20.1093 152.718 21.0373 153.38 22.168C153.209 23.1493 152.9 24.0773 152.452 24.952C152.004 25.8267 151.46 26.5093 150.82 27C149.774 27.2773 148.622 27.4267 147.364 27.448C146.105 27.4907 144.761 27.3733 143.332 27.096C143.054 26.8827 142.734 26.616 142.372 26.296C142.009 25.9547 141.689 25.6027 141.412 25.24L141.572 21.048C141.934 20.92 142.361 20.8453 142.852 20.824C143.342 20.7813 143.79 20.8133 144.196 20.92L144.708 24.408C145.646 24.5573 146.606 24.568 147.588 24.44C148.59 24.2907 149.422 24.056 150.084 23.736C149.55 23.032 148.878 22.4027 148.068 21.848C147.278 21.2933 146.446 20.7493 145.572 20.216C144.718 19.6613 143.918 19.032 143.172 18.328C142.446 17.624 141.881 16.76 141.476 15.736C141.54 15.2667 141.678 14.7333 141.892 14.136C142.105 13.5173 142.361 12.9307 142.66 12.376C142.98 11.8213 143.321 11.384 143.684 11.064C145.07 10.68 146.393 10.488 147.652 10.488C148.91 10.4667 150.254 10.6053 151.684 10.904C151.961 11.0747 152.249 11.3733 152.548 11.8C152.868 12.2267 153.113 12.568 153.284 12.824L152.836 16.792C152.473 16.92 152.057 16.984 151.588 16.984C151.118 16.984 150.67 16.9413 150.244 16.856L149.956 13.592C149.102 13.528 148.217 13.5387 147.3 13.624C146.404 13.7093 145.561 13.88 144.772 14.136ZM162.773 22.872C162.944 23.128 163.125 23.4907 163.317 23.96C163.531 24.4293 163.659 24.9093 163.701 25.4L159.381 27.512C158.592 27.1493 157.899 26.712 157.301 26.2C156.704 25.688 156.256 25.1547 155.957 24.6L156.629 14.104L156.885 4.856L154.389 5.496C154.24 5.24 154.059 4.888 153.845 4.44C153.632 3.97066 153.504 3.49066 153.461 3L157.781 0.887999C157.995 0.909332 158.325 1.016 158.773 1.208C159.243 1.4 159.701 1.624 160.149 1.88C160.597 2.136 160.917 2.36 161.109 2.552L159.733 14.392L159.989 23.608L162.773 22.872ZM180.207 22.872C180.399 23.128 180.591 23.4907 180.783 23.96C180.975 24.4293 181.092 24.9093 181.135 25.4L176.815 27.512C176.303 27.3627 175.748 27.1173 175.151 26.776C174.575 26.4347 174.138 26.1253 173.839 25.848L173.967 23.512C172.9 24.6853 171.823 25.624 170.735 26.328C169.647 27.032 168.698 27.4267 167.887 27.512C167.567 27.3413 167.172 27.0427 166.703 26.616C166.255 26.168 165.828 25.6773 165.423 25.144C165.039 24.5893 164.783 24.0667 164.655 23.576L165.327 14.744C165.647 14.0613 166.106 13.3787 166.703 12.696C167.3 11.992 167.898 11.4267 168.495 11C170.031 10.7227 171.524 10.5627 172.975 10.52C174.426 10.456 176.026 10.7013 177.775 11.256C178.01 11.512 178.223 11.8213 178.415 12.184C178.607 12.5467 178.767 12.8987 178.895 13.24C179.044 13.56 179.13 13.8053 179.151 13.976C178.938 14.9147 178.65 15.832 178.287 16.728C177.946 17.624 177.53 18.4773 177.039 19.288L177.423 23.576L180.207 22.872ZM169.071 23.608C169.839 23.3307 170.682 22.7333 171.599 21.816C172.538 20.8987 173.391 19.8107 174.159 18.552L174.287 13.72C173.412 13.6987 172.57 13.7413 171.759 13.848C170.948 13.9547 170.18 14.1147 169.455 14.328C169.071 15.3947 168.794 16.4827 168.623 17.592C168.474 18.68 168.399 19.6933 168.399 20.632C168.42 21.5493 168.495 22.2853 168.623 22.84C168.751 23.3947 168.9 23.6507 169.071 23.608ZM193.332 22.52C193.481 22.712 193.641 23.0533 193.812 23.544C193.983 24.0347 194.057 24.4933 194.036 24.92C193.46 25.2613 192.799 25.6027 192.052 25.944C191.305 26.2853 190.58 26.5947 189.876 26.872C189.193 27.1493 188.617 27.3627 188.148 27.512C187.593 27.3413 186.985 27.0747 186.324 26.712C185.663 26.3493 185.065 25.9227 184.532 25.432C184.02 24.92 183.689 24.408 183.54 23.896L184.244 14.744L181.78 15.224L180.98 13.048L184.276 10.2L184.052 7.64C184.415 7.256 184.852 6.88267 185.364 6.52C185.876 6.136 186.367 5.848 186.836 5.656L188.02 6.488L187.892 10.936C188.767 10.8507 189.663 10.7973 190.58 10.776C191.519 10.7547 192.447 10.7867 193.364 10.872L193.684 13.432L192.692 14.456C190.985 14.328 189.353 14.296 187.796 14.36C187.647 15.32 187.54 16.3653 187.476 17.496C187.412 18.6267 187.412 19.7467 187.476 20.856C187.54 21.944 187.689 22.9467 187.924 23.864L193.332 22.52ZM215.25 13.848L209.01 15.928L208.754 23.128C208.584 23.4693 208.317 23.8853 207.954 24.376C207.613 24.8453 207.229 25.304 206.802 25.752C206.397 26.2 205.992 26.5733 205.586 26.872C204.946 27.064 204.338 27.2133 203.762 27.32C203.186 27.448 202.536 27.512 201.81 27.512C201.106 27.512 200.221 27.4693 199.154 27.384C198.728 27.2133 198.226 26.9147 197.65 26.488C197.074 26.04 196.552 25.5493 196.082 25.016C195.613 24.4613 195.314 23.9387 195.186 23.448L195.602 14.744C195.773 14.3173 195.997 13.848 196.274 13.336C196.573 12.8027 196.893 12.2907 197.234 11.8C197.597 11.3093 197.949 10.936 198.29 10.68C198.845 10.8293 199.325 11.064 199.73 11.384C200.136 11.6827 200.445 11.9813 200.658 12.28C200.082 12.9627 199.656 13.8373 199.378 14.904C199.101 15.9707 198.93 17.08 198.866 18.232C198.802 19.384 198.824 20.4613 198.93 21.464C199.058 22.4453 199.229 23.2133 199.442 23.768C200.338 23.9387 201.234 24.0027 202.13 23.96C203.026 23.896 203.869 23.7573 204.658 23.544C205.085 22.3067 205.32 21.048 205.362 19.768C205.426 18.488 205.373 17.3573 205.202 16.376C204.477 16.44 203.848 16.472 203.314 16.472C202.802 16.472 202.322 16.4293 201.874 16.344L200.882 14.2C201.266 13.496 201.661 12.8453 202.066 12.248C202.493 11.6293 202.952 11.0427 203.442 10.488C204.274 10.5733 205.064 10.872 205.81 11.384C206.557 11.896 207.197 12.504 207.73 13.208L214.29 10.68C214.525 10.9787 214.738 11.448 214.93 12.088C215.122 12.7067 215.229 13.2933 215.25 13.848ZM221.809 10.488C222.299 10.744 222.769 11.224 223.217 11.928C223.686 12.6107 224.017 13.3253 224.209 14.072L223.921 18.072C223.558 18.328 223.099 18.52 222.545 18.648C221.99 18.7547 221.478 18.8187 221.009 18.84L220.241 18.104C220.347 17.3147 220.411 16.6213 220.433 16.024C220.475 15.4053 220.454 14.8613 220.369 14.392C219.707 14.8827 219.089 15.5973 218.513 16.536C217.958 17.4533 217.446 18.4773 216.977 19.608L217.073 27C216.603 27.128 216.059 27.192 215.441 27.192C214.822 27.192 214.267 27.128 213.777 27C213.115 26.296 212.571 25.496 212.145 24.6C212.294 23.896 212.507 23.1493 212.785 22.36C213.062 21.5493 213.382 20.7493 213.745 19.96V18.808L213.361 14.392L210.577 15.096C210.427 14.84 210.246 14.488 210.033 14.04C209.819 13.5707 209.691 13.0907 209.649 12.6L213.969 10.488C214.182 10.5093 214.481 10.6267 214.865 10.84C215.27 11.0533 215.665 11.288 216.049 11.544C216.454 11.7787 216.753 11.9813 216.945 12.152L216.817 14.68C217.691 13.464 218.577 12.4613 219.473 11.672C220.369 10.8827 221.147 10.488 221.809 10.488Z" fill="white"/>
</svg>
